# xmcd CD database file
#
# Track frame offsets:
#	150
#	25908
#	41295
#	56413
#	70818
#	86213
#	100403
#	116100
#	131968
#	144105
#	160673
#	172820
#	187468
#
# Disc length: 2664 seconds
#
# Revision: 2
# Processed by: cddbd v1.4PL0 Copyright (c) Steve Scherf et al.
# Submitted via: CDex 1.40Release
#
DISCID=b40a660d
DTITLE=Barry Manilow - Even Now
DYEAR=1978
DGENRE=Easy Listening
TTITLE0=Copacabana (At The Copa)
TTITLE1=Somewhere in the Night
TTITLE2=A Linda Song
TTITLE3=Can't Smile Without You
TTITLE4=Leavin' In the Morning
TTITLE5=Where Do I Go From Here
TTITLE6=Even Now
TTITLE7=I Was A Fool (To Let You Go)
TTITLE8=Losing Touch
TTITLE9=I Just Want to Be the One in Your Life
TTITLE10=Starting Again
TTITLE11=Sunrise
TTITLE12=No Love For Jenny
EXTD=YEAR: 1978 ID3G: 98
EXTT0=
EXTT1=
EXTT2=
EXTT3=
EXTT4=
EXTT5=
EXTT6=
EXTT7=
EXTT8=
EXTT9=
EXTT10=
EXTT11=
EXTT12=
PLAYORDER=
